# xmcd
#
# Track frame offsets:
#	150
#	11113
#	25204
#	41104
#	57293
#	72604
#	89775
#	105081
#	121026
#	137140
#	152983
#	171437
#	187208
#	201630
#	217532
#	231793
#	248326
#	265481
#	280823
#	297053
#
# Disc length: 4108 seconds
#
# Revision: 1
# Processed by: cddbd v1.5.1PL2 Copyright (c) Steve Scherf et al.
# Submitted via: audiograbber 1.83.01
#
DISCID=2d100a14
DTITLE=Colorado Kids - Colorado Kids
DYEAR=2005
DGENRE=Country
TTITLE0=Wir sinde die Country Kids
TTITLE1=Joe der Wüstensandfloh (Cotton Eyed Joe)
TTITLE2=Colorado Colorado
TTITLE3=Der Woodmichl (sägt er noch)(Der Holzmichl)
TTITLE4=Am Fuß der blauen Berge
TTITLE5=Opa Meier hat 'ne Farm
TTITLE6=Mrs Hippie vom Mississippi
TTITLE7=Hopp Hopp Hopp
TTITLE8=Zehn kleine Cowboys
TTITLE9=Meine Oma aus Omaha
TTITLE10=Ein Hase saß im tiefen Tal
TTITLE11=Wahre Freunde (Old Shatterhand Melodie)
TTITLE12=Joe der Wüstensandfloh (Karaoke Version)
TTITLE13=Colorado Colorado (Karaoke Version)
TTITLE14=Der Woodmichl (Karaoke Version)
TTITLE15=Am Fuß der blauen Berge (Karaoke Version)
TTITLE16=Opa Meier hat 'ne Farm (Karaoke Version)
TTITLE17=Mrs Hippie vom Mississippi (Karaoke Version)
TTITLE18=Zehn kleine Cowboys (Karaoke Version)
TTITLE19=Wir sinde die Country Kids (Karaoke Version)
EXTD=
EXTT0=
EXTT1=
EXTT2=
EXTT3=
EXTT4=
EXTT5=
EXTT6=
EXTT7=
EXTT8=
EXTT9=
EXTT10=
EXTT11=
EXTT12=
EXTT13=
EXTT14=
EXTT15=
EXTT16=
EXTT17=
EXTT18=
EXTT19=
PLAYORDER=
